RobotoSerifMicroCond-Regular Italic 08fz.ufo
<glyph name="acute" format="2">
  <advance width="410"/>
  <anchor x="164" y="527" name="_top"/>
  <outline>
    <contour>
      <point x="221" y="808" type="curve" smooth="yes"/>
      <point x="150" y="684" type="line"/>
      <point x="145" y="661" type="line"/>
      <point x="172" y="661" type="line"/>
      <point x="281" y="749" type="line" smooth="yes"/>
      <point x="312" y="773"/>
      <point x="340" y="789"/>
      <point x="340" y="821" type="curve" smooth="yes"/>
      <point x="340" y="845"/>
      <point x="322" y="865"/>
      <point x="292" y="865" type="curve" smooth="yes"/>
      <point x="261" y="865"/>
      <point x="241" y="841"/>
    </contour>
  </outline>
</glyph>
<glyph name="acute.uc" format="2">
  <advance width="410"/>
  <anchor x="157" y="727" name="_top"/>
  <outline>
    <contour>
      <point x="215" y="922" type="curve" smooth="yes"/>
      <point x="126" y="817" type="line"/>
      <point x="120" y="793" type="line"/>
      <point x="153" y="793" type="line"/>
      <point x="257" y="858" type="line" smooth="yes"/>
      <point x="297" y="878"/>
      <point x="322" y="894"/>
      <point x="322" y="924" type="curve" smooth="yes"/>
      <point x="322" y="946"/>
      <point x="305" y="965"/>
      <point x="277" y="965" type="curve" smooth="yes"/>
      <point x="252" y="965"/>
      <point x="235" y="948"/>
    </contour>
  </outline>
</glyph>
<glyph name="acute.ucpl" format="2">
  <advance width="410"/>
  <anchor x="140" y="694" name="_top"/>
  <outline>
    <contour>
      <point x="187" y="913" type="curve" smooth="yes"/>
      <point x="150" y="815" type="line"/>
      <point x="146" y="793" type="line"/>
      <point x="177" y="793" type="line"/>
      <point x="246" y="862" type="line" smooth="yes"/>
      <point x="275" y="885"/>
      <point x="296" y="906"/>
      <point x="296" y="933" type="curve" smooth="yes"/>
      <point x="296" y="958"/>
      <point x="277" y="975"/>
      <point x="250" y="975" type="curve" smooth="yes"/>
      <point x="217" y="975"/>
      <point x="200" y="946"/>
    </contour>
  </outline>
</glyph>
<glyph name="breve_acute.uc" format="2">
  <advance width="440"/>
  <anchor x="218" y="744" name="_top"/>
  <outline>
    <contour>
      <point x="263" y="1101" type="curve" smooth="yes"/>
      <point x="173" y="996" type="line"/>
      <point x="168" y="972" type="line"/>
      <point x="200" y="972" type="line"/>
      <point x="304" y="1037" type="line" smooth="yes"/>
      <point x="344" y="1057"/>
      <point x="369" y="1073"/>
      <point x="369" y="1103" type="curve" smooth="yes"/>
      <point x="369" y="1125"/>
      <point x="352" y="1144"/>
      <point x="325" y="1144" type="curve" smooth="yes"/>
      <point x="300" y="1144"/>
      <point x="283" y="1127"/>
    </contour>
    <component base="breve.uc"/>
  </outline>
</glyph>
<glyph name="breve_tilde.uc" format="2">
  <advance width="410"/>
  <anchor x="232" y="694" name="_top"/>
  <outline>
    <contour>
      <point x="180" y="1095" type="curve" smooth="yes"/>
      <point x="222" y="1095"/>
      <point x="213" y="1004"/>
      <point x="292" y="1004" type="curve" smooth="yes"/>
      <point x="339" y="1004"/>
      <point x="367" y="1037"/>
      <point x="396" y="1140" type="curve"/>
      <point x="351" y="1157" type="line"/>
      <point x="331" y="1096"/>
      <point x="324" y="1063"/>
      <point x="300" y="1063" type="curve" smooth="yes"/>
      <point x="263" y="1063"/>
      <point x="270" y="1152"/>
      <point x="191" y="1152" type="curve" smooth="yes"/>
      <point x="140" y="1152"/>
      <point x="109" y="1119"/>
      <point x="79" y="1020" type="curve"/>
      <point x="123" y="1003" type="line"/>
      <point x="144" y="1067"/>
      <point x="155" y="1095"/>
    </contour>
    <contour>
      <point x="197" y="796" type="curve" smooth="yes"/>
      <point x="96" y="796"/>
      <point x="62" y="841"/>
      <point x="62" y="910" type="curve" smooth="yes"/>
      <point x="62" y="924"/>
      <point x="64" y="936"/>
      <point x="65" y="951" type="curve"/>
      <point x="124" y="951" type="line"/>
      <point x="121" y="890"/>
      <point x="131" y="866"/>
      <point x="203" y="866" type="curve" smooth="yes"/>
      <point x="263" y="866"/>
      <point x="283" y="879"/>
      <point x="297" y="951" type="curve"/>
      <point x="356" y="951" type="line"/>
      <point x="339" y="836"/>
      <point x="284" y="796"/>
    </contour>
  </outline>
</glyph>
<glyph name="circumflex.uc" format="2">
  <advance width="410"/>
  <anchor x="204" y="694" name="_top"/>
  <outline>
    <contour>
      <point x="257" y="957" type="line"/>
      <point x="338" y="802" type="line"/>
      <point x="333" y="782" type="line"/>
      <point x="295" y="782" type="line"/>
      <point x="174" y="915" type="line"/>
      <point x="259" y="912" type="line"/>
      <point x="81" y="782" type="line"/>
      <point x="40" y="782" type="line"/>
      <point x="45" y="802" type="line"/>
      <point x="190" y="957" type="line"/>
    </contour>
  </outline>
</glyph>
<glyph name="circumflex_acute" format="2">
  <advance width="438"/>
  <anchor x="186" y="558" name="_top"/>
  <outline>
    <contour>
      <point x="391" y="943" type="curve" smooth="yes"/>
      <point x="340" y="824" type="line"/>
      <point x="339" y="801" type="line"/>
      <point x="365" y="801" type="line"/>
      <point x="459" y="893" type="line" smooth="yes"/>
      <point x="483" y="915"/>
      <point x="501" y="933"/>
      <point x="501" y="958" type="curve" smooth="yes"/>
      <point x="501" y="979"/>
      <point x="483" y="1000"/>
      <point x="453" y="1000" type="curve" smooth="yes"/>
      <point x="423" y="1000"/>
      <point x="406" y="976"/>
    </contour>
    <component base="circumflex"/>
  </outline>
</glyph>
<glyph name="circumflex_acute.uc" format="2">
  <advance width="451"/>
  <anchor x="203" y="749" name="_top"/>
  <outline>
    <contour>
      <point x="425" y="1050" type="curve" smooth="yes"/>
      <point x="340" y="945" type="line"/>
      <point x="335" y="921" type="line"/>
      <point x="368" y="921" type="line"/>
      <point x="470" y="985" type="line" smooth="yes"/>
      <point x="508" y="1006"/>
      <point x="532" y="1022"/>
      <point x="532" y="1051" type="curve" smooth="yes"/>
      <point x="532" y="1074"/>
      <point x="514" y="1093"/>
      <point x="487" y="1093" type="curve" smooth="yes"/>
      <point x="460" y="1093"/>
      <point x="443" y="1076"/>
    </contour>
    <component base="circumflex.uc"/>
  </outline>
</glyph>
<glyph name="circumflex_grave" format="2">
  <advance width="485"/>
  <anchor x="235" y="564" name="_top"/>
  <outline>
    <contour>
      <point x="394" y="935" type="curve" smooth="yes"/>
      <point x="420" y="824" type="line"/>
      <point x="414" y="800" type="line"/>
      <point x="388" y="800" type="line"/>
      <point x="318" y="896" type="line" smooth="yes"/>
      <point x="304" y="915"/>
      <point x="291" y="934"/>
      <point x="291" y="954" type="curve" smooth="yes"/>
      <point x="291" y="979"/>
      <point x="310" y="999"/>
      <point x="341" y="999" type="curve" smooth="yes"/>
      <point x="376" y="999"/>
      <point x="386" y="973"/>
    </contour>
    <component base="circumflex"/>
  </outline>
</glyph>
<glyph name="circumflex_hook" format="2">
  <advance width="439"/>
  <anchor x="193" y="559" name="_top"/>
  <outline>
    <contour>
      <point x="288" y="938" type="line"/>
      <point x="305" y="1013"/>
      <point x="359" y="1047"/>
      <point x="427" y="1047" type="curve" smooth="yes"/>
      <point x="501" y="1047"/>
      <point x="548" y="1015"/>
      <point x="548" y="950" type="curve" smooth="yes"/>
      <point x="548" y="869"/>
      <point x="487" y="836"/>
      <point x="386" y="836" type="curve"/>
      <point x="438" y="873" type="line"/>
      <point x="419" y="785" type="line"/>
      <point x="352" y="785" type="line"/>
      <point x="370" y="874" type="line"/>
      <point x="446" y="876"/>
      <point x="473" y="891"/>
      <point x="473" y="947" type="curve" smooth="yes"/>
      <point x="473" y="982"/>
      <point x="460" y="998"/>
      <point x="425" y="998" type="curve" smooth="yes"/>
      <point x="390" y="998"/>
      <point x="370" y="981"/>
      <point x="361" y="938" type="curve"/>
    </contour>
    <component base="circumflex"/>
  </outline>
</glyph>
<glyph name="circumflex_tilde" format="2">
  <advance width="410"/>
  <anchor x="197" y="551" name="_top"/>
  <outline>
    <contour>
      <point x="253" y="817" type="line"/>
      <point x="337" y="676" type="line"/>
      <point x="332" y="656" type="line"/>
      <point x="297" y="656" type="line"/>
      <point x="172" y="775" type="line"/>
      <point x="228" y="764" type="line"/>
      <point x="84" y="656" type="line"/>
      <point x="44" y="656" type="line"/>
      <point x="49" y="676" type="line"/>
      <point x="190" y="817" type="line"/>
    </contour>
    <contour>
      <point x="187" y="1022" type="curve" smooth="yes"/>
      <point x="137" y="1022"/>
      <point x="107" y="994"/>
      <point x="76" y="892" type="curve"/>
      <point x="121" y="877" type="line"/>
      <point x="142" y="941"/>
      <point x="152" y="967"/>
      <point x="178" y="967" type="curve" smooth="yes"/>
      <point x="221" y="967"/>
      <point x="212" y="878"/>
      <point x="289" y="878" type="curve" smooth="yes"/>
      <point x="336" y="878"/>
      <point x="363" y="903"/>
      <point x="393" y="1012" type="curve"/>
      <point x="348" y="1027" type="line"/>
      <point x="328" y="961"/>
      <point x="321" y="935"/>
      <point x="298" y="935" type="curve" smooth="yes"/>
      <point x="259" y="935"/>
      <point x="264" y="1022"/>
    </contour>
  </outline>
</glyph>
<glyph name="circumflex_tilde.uc" format="2">
  <advance width="410"/>
  <anchor x="194" y="694" name="_top"/>
  <outline>
    <contour>
      <point x="303" y="997" type="curve" smooth="yes"/>
      <point x="349" y="997"/>
      <point x="375" y="1027"/>
      <point x="406" y="1130" type="curve"/>
      <point x="361" y="1147" type="line"/>
      <point x="341" y="1086"/>
      <point x="334" y="1056"/>
      <point x="311" y="1056" type="curve" smooth="yes"/>
      <point x="274" y="1056"/>
      <point x="278" y="1142"/>
      <point x="201" y="1142" type="curve" smooth="yes"/>
      <point x="150" y="1142"/>
      <point x="121" y="1111"/>
      <point x="90" y="1013" type="curve"/>
      <point x="135" y="996" type="line"/>
      <point x="155" y="1059"/>
      <point x="165" y="1085"/>
      <point x="191" y="1085" type="curve" smooth="yes"/>
      <point x="233" y="1085"/>
      <point x="226" y="997"/>
    </contour>
    <contour>
      <point x="254" y="940" type="line"/>
      <point x="338" y="802" type="line"/>
      <point x="333" y="782" type="line"/>
      <point x="297" y="782" type="line"/>
      <point x="172" y="899" type="line"/>
      <point x="229" y="888" type="line"/>
      <point x="84" y="782" type="line"/>
      <point x="44" y="782" type="line"/>
      <point x="48" y="802" type="line"/>
      <point x="190" y="940" type="line"/>
    </contour>
  </outline>
</glyph>
<glyph name="commaaccent" format="2">
  <advance width="243"/>
  <anchor x="118" y="33" name="_bottom"/>
  <outline>
    <contour>
      <point x="41" y="-341" type="line"/>
      <point x="154" y="-324"/>
      <point x="205" y="-254"/>
      <point x="205" y="-160" type="curve" smooth="yes"/>
      <point x="205" y="-117"/>
      <point x="187" y="-93"/>
      <point x="132" y="-93" type="curve" smooth="yes"/>
      <point x="86" y="-93"/>
      <point x="66" y="-116"/>
      <point x="66" y="-148" type="curve" smooth="yes"/>
      <point x="66" y="-180"/>
      <point x="88" y="-195"/>
      <point x="123" y="-195" type="curve" smooth="yes"/>
      <point x="141" y="-195"/>
      <point x="155" y="-191"/>
      <point x="163" y="-184" type="curve"/>
      <point x="159" y="-172"/>
      <point x="157" y="-174"/>
      <point x="154" y="-184" type="curve"/>
      <point x="139" y="-254"/>
      <point x="104" y="-279"/>
      <point x="26" y="-288" type="curve"/>
    </contour>
  </outline>
</glyph>
<glyph name="dblgrave" format="2">
  <advance width="410"/>
  <anchor x="187" y="539" name="_top"/>
  <outline>
    <contour>
      <point x="342" y="812" type="line" smooth="yes"/>
      <point x="333" y="847"/>
      <point x="319" y="868"/>
      <point x="289" y="868" type="curve" smooth="yes"/>
      <point x="259" y="868"/>
      <point x="242" y="849"/>
      <point x="242" y="825" type="curve" smooth="yes"/>
      <point x="242" y="801"/>
      <point x="255" y="786"/>
      <point x="280" y="752" type="curve" smooth="yes"/>
      <point x="349" y="661" type="line"/>
      <point x="376" y="661" type="line"/>
      <point x="371" y="684" type="line"/>
    </contour>
    <contour>
      <point x="172" y="812" type="line" smooth="yes"/>
      <point x="164" y="847"/>
      <point x="150" y="868"/>
      <point x="120" y="868" type="curve" smooth="yes"/>
      <point x="90" y="868"/>
      <point x="73" y="849"/>
      <point x="73" y="825" type="curve" smooth="yes"/>
      <point x="73" y="801"/>
      <point x="86" y="786"/>
      <point x="111" y="752" type="curve" smooth="yes"/>
      <point x="179" y="661" type="line"/>
      <point x="206" y="661" type="line"/>
      <point x="202" y="684" type="line"/>
    </contour>
  </outline>
</glyph>
<glyph name="grave" format="2">
  <advance width="410"/>
  <anchor x="171" y="531" name="_top"/>
  <outline>
    <contour>
      <point x="229" y="802" type="curve" smooth="yes"/>
      <point x="274" y="684" type="line"/>
      <point x="271" y="661" type="line"/>
      <point x="240" y="661" type="line"/>
      <point x="152" y="759" type="line" smooth="yes"/>
      <point x="132" y="779"/>
      <point x="119" y="797"/>
      <point x="119" y="820" type="curve" smooth="yes"/>
      <point x="119" y="845"/>
      <point x="137" y="866"/>
      <point x="169" y="866" type="curve" smooth="yes"/>
      <point x="204" y="866"/>
      <point x="216" y="840"/>
    </contour>
  </outline>
</glyph>
<glyph name="grave.uc" format="2">
  <advance width="410"/>
  <anchor x="218" y="694" name="_top"/>
  <outline>
    <contour>
      <point x="282" y="793" type="line"/>
      <point x="179" y="858" type="line" smooth="yes"/>
      <point x="148" y="874"/>
      <point x="127" y="893"/>
      <point x="127" y="918" type="curve" smooth="yes"/>
      <point x="127" y="942"/>
      <point x="143" y="965"/>
      <point x="177" y="965" type="curve" smooth="yes"/>
      <point x="207" y="965"/>
      <point x="220" y="943"/>
      <point x="240" y="913" type="curve" smooth="yes"/>
      <point x="315" y="817" type="line"/>
      <point x="314" y="793" type="line"/>
    </contour>
  </outline>
</glyph>
<glyph name="hook" format="2">
  <advance width="410"/>
  <anchor x="184" y="517" name="_top"/>
  <outline>
    <contour>
      <point x="65" y="802" type="line"/>
      <point x="83" y="888"/>
      <point x="134" y="924"/>
      <point x="219" y="924" type="curve" smooth="yes"/>
      <point x="307" y="924"/>
      <point x="348" y="892"/>
      <point x="348" y="820" type="curve" smooth="yes"/>
      <point x="348" y="731"/>
      <point x="286" y="698"/>
      <point x="177" y="697" type="curve"/>
      <point x="231" y="737" type="line"/>
      <point x="212" y="647" type="line"/>
      <point x="139" y="647" type="line"/>
      <point x="159" y="741" type="line"/>
      <point x="249" y="744"/>
      <point x="268" y="756"/>
      <point x="268" y="819" type="curve" smooth="yes"/>
      <point x="268" y="856"/>
      <point x="254" y="873"/>
      <point x="216" y="873" type="curve" smooth="yes"/>
      <point x="180" y="873"/>
      <point x="155" y="855"/>
      <point x="145" y="802" type="curve"/>
    </contour>
  </outline>
</glyph>
<glyph name="hungarumlaut" format="2">
  <advance width="410"/>
  <anchor x="218" y="525" name="_top"/>
  <outline>
    <contour>
      <point x="71" y="813" type="curve" smooth="yes"/>
      <point x="38" y="684" type="line"/>
      <point x="33" y="661" type="line"/>
      <point x="60" y="661" type="line"/>
      <point x="130" y="755" type="line" smooth="yes"/>
      <point x="157" y="786"/>
      <point x="171" y="801"/>
      <point x="171" y="827" type="curve" smooth="yes"/>
      <point x="171" y="850"/>
      <point x="155" y="868"/>
      <point x="125" y="868" type="curve" smooth="yes"/>
      <point x="95" y="868"/>
      <point x="81" y="847"/>
    </contour>
    <contour>
      <point x="242" y="813" type="curve" smooth="yes"/>
      <point x="209" y="684" type="line"/>
      <point x="203" y="661" type="line"/>
      <point x="230" y="661" type="line"/>
      <point x="301" y="755" type="line" smooth="yes"/>
      <point x="329" y="786"/>
      <point x="342" y="801"/>
      <point x="342" y="827" type="curve" smooth="yes"/>
      <point x="342" y="850"/>
      <point x="326" y="868"/>
      <point x="296" y="868" type="curve" smooth="yes"/>
      <point x="266" y="868"/>
      <point x="252" y="847"/>
    </contour>
  </outline>
</glyph>
<glyph name="product" format="2">
  <advance width="662"/>
  <outline>
    <contour>
      <point x="396" y="654" type="line" smooth="yes"/>
      <point x="357" y="654"/>
      <point x="306" y="651"/>
      <point x="304" y="644" type="curve" smooth="yes"/>
      <point x="104" y="-157" type="line" smooth="yes"/>
      <point x="102" y="-164"/>
      <point x="135" y="-167"/>
      <point x="162" y="-167" type="curve" smooth="yes"/>
      <point x="171" y="-167" type="line"/>
      <point x="158" y="-223" type="line"/>
      <point x="-70" y="-223" type="line"/>
      <point x="-57" y="-167" type="line"/>
      <point x="-46" y="-167" type="line" smooth="yes"/>
      <point x="-8" y="-167"/>
      <point x="20" y="-160"/>
      <point x="27" y="-131" type="curve" smooth="yes"/>
      <point x="215" y="618" type="line" smooth="yes"/>
      <point x="222" y="647"/>
      <point x="195" y="654"/>
      <point x="160" y="654" type="curve" smooth="yes"/>
      <point x="149" y="654" type="line"/>
      <point x="162" y="710" type="line"/>
      <point x="703" y="710" type="line"/>
      <point x="690" y="654" type="line"/>
      <point x="679" y="654" type="line" smooth="yes"/>
      <point x="641" y="654"/>
      <point x="613" y="647"/>
      <point x="606" y="618" type="curve" smooth="yes"/>
      <point x="418" y="-131" type="line"/>
      <point x="411" y="-160"/>
      <point x="438" y="-167"/>
      <point x="473" y="-167" type="curve" smooth="yes"/>
      <point x="484" y="-167" type="line"/>
      <point x="471" y="-223" type="line"/>
      <point x="243" y="-223" type="line"/>
      <point x="256" y="-167" type="line"/>
      <point x="265" y="-167" type="line" smooth="yes"/>
      <point x="293" y="-167"/>
      <point x="327" y="-164"/>
      <point x="329" y="-157" type="curve" smooth="yes"/>
      <point x="529" y="644" type="line" smooth="yes"/>
      <point x="531" y="651"/>
      <point x="482" y="654"/>
      <point x="443" y="654" type="curve" smooth="yes"/>
    </contour>
  </outline>
</glyph>
<glyph name="ring" format="2">
  <advance width="410"/>
  <anchor x="206" y="526" name="_top"/>
  <outline>
    <contour>
      <point x="197" y="680" type="curve" smooth="yes"/>
      <point x="164" y="680"/>
      <point x="145" y="700"/>
      <point x="145" y="739" type="curve" smooth="yes"/>
      <point x="145" y="783"/>
      <point x="161" y="821"/>
      <point x="203" y="821" type="curve" smooth="yes"/>
      <point x="236" y="821"/>
      <point x="255" y="801"/>
      <point x="255" y="762" type="curve" smooth="yes"/>
      <point x="255" y="718"/>
      <point x="239" y="680"/>
    </contour>
    <contour>
      <point x="197" y="635" type="curve" smooth="yes"/>
      <point x="273" y="635"/>
      <point x="320" y="689"/>
      <point x="320" y="759" type="curve" smooth="yes"/>
      <point x="320" y="819"/>
      <point x="283" y="866"/>
      <point x="203" y="866" type="curve" smooth="yes"/>
      <point x="127" y="866"/>
      <point x="79" y="812"/>
      <point x="79" y="742" type="curve" smooth="yes"/>
      <point x="79" y="682"/>
      <point x="117" y="635"/>
    </contour>
  </outline>
</glyph>
<glyph name="tilde" format="2">
  <advance width="410"/>
  <anchor x="205" y="516" name="_top"/>
  <outline>
    <contour>
      <point x="263" y="661" type="curve" smooth="yes"/>
      <point x="319" y="661"/>
      <point x="346" y="692"/>
      <point x="380" y="830" type="curve"/>
      <point x="331" y="843" type="line"/>
      <point x="309" y="759"/>
      <point x="301" y="721"/>
      <point x="270" y="721" type="curve" smooth="yes"/>
      <point x="226" y="721"/>
      <point x="231" y="838"/>
      <point x="146" y="838" type="curve" smooth="yes"/>
      <point x="90" y="838"/>
      <point x="63" y="803"/>
      <point x="29" y="672" type="curve"/>
      <point x="78" y="660" type="line"/>
      <point x="99" y="745"/>
      <point x="108" y="780"/>
      <point x="136" y="780" type="curve" smooth="yes"/>
      <point x="176" y="780"/>
      <point x="175" y="661"/>
    </contour>
  </outline>
</glyph>
<glyph name="tilde.uc" format="2">
  <advance width="410"/>
  <anchor x="205" y="694" name="_top"/>
  <outline>
    <contour>
      <point x="263" y="788" type="curve" smooth="yes"/>
      <point x="320" y="788"/>
      <point x="347" y="822"/>
      <point x="380" y="961" type="curve"/>
      <point x="331" y="974" type="line"/>
      <point x="309" y="889"/>
      <point x="300" y="852"/>
      <point x="269" y="852" type="curve" smooth="yes"/>
      <point x="223" y="852"/>
      <point x="227" y="969"/>
      <point x="145" y="969" type="curve" smooth="yes"/>
      <point x="88" y="969"/>
      <point x="61" y="932"/>
      <point x="28" y="800" type="curve"/>
      <point x="78" y="787" type="line"/>
      <point x="99" y="874"/>
      <point x="110" y="907"/>
      <point x="137" y="907" type="curve" smooth="yes"/>
      <point x="179" y="907"/>
      <point x="178" y="788"/>
    </contour>
  </outline>
</glyph>
<glyph name="zero.midprop" format="2">
  <advance width="531"/>
  <outline>
    <contour>
      <point x="208" y="-11" type="curve" smooth="yes"/>
      <point x="399" y="-11"/>
      <point x="501" y="270"/>
      <point x="501" y="462" type="curve" smooth="yes"/>
      <point x="501" y="605"/>
      <point x="442" y="683"/>
      <point x="323" y="683" type="curve" smooth="yes"/>
      <point x="131" y="683"/>
      <point x="30" y="402"/>
      <point x="30" y="210" type="curve" smooth="yes"/>
      <point x="30" y="67"/>
      <point x="89" y="-11"/>
    </contour>
    <contour>
      <point x="209" y="38" type="curve" smooth="yes"/>
      <point x="147" y="38"/>
      <point x="120" y="81"/>
      <point x="120" y="162" type="curve" smooth="yes"/>
      <point x="120" y="211"/>
      <point x="127" y="274"/>
      <point x="147" y="356" type="curve" smooth="yes"/>
      <point x="192" y="547"/>
      <point x="237" y="634"/>
      <point x="322" y="634" type="curve" smooth="yes"/>
      <point x="385" y="634"/>
      <point x="411" y="592"/>
      <point x="411" y="510" type="curve" smooth="yes"/>
      <point x="411" y="462"/>
      <point x="406" y="398"/>
      <point x="386" y="316" type="curve" smooth="yes"/>
      <point x="341" y="127"/>
      <point x="292" y="38"/>
    </contour>
  </outline>
</glyph>
